# xmcd CD database file
#
# Track frame offsets:
#	150
#	37032
#	72962
#	97655
#	127762
#	170402
#	203297
#	232997
#
# Disc length: 3686 seconds
#
# Revision: 2
# Processed by: cddbd v1.5.1PL0 Copyright (c) Steve Scherf et al.
# Submitted via: CDex 1.51
#
DISCID=560e6408
DTITLE=Gary Thomas - Till We Have Faces
DYEAR=1993
DGENRE=Jazz
TTITLE0=Angel Eyes
TTITLE1=The Best Thing For You
TTITLE2=Lush Life
TTITLE3=Bye Bye Baby
TTITLE4=Lament
TTITLE5=Peace
TTITLE6=It's You Or No One
TTITLE7=You Don't Know What Love Is
EXTD=name\tvorname\tinstrument\nthomas\tgary\tts\nmetheny\tpat\tgit\nmurphy\ttim\t\ncox\tanthony\tb\nhoward\ted\tb\ncarrington\tterri\t\nmoss\tsteve\t YEAR: 1993
EXTT0=
EXTT1=
EXTT2=
EXTT3=
EXTT4=
EXTT5=
EXTT6=
EXTT7=
PLAYORDER=
